<svg xmlns="http://www.w3.org/2000/svg" width="38.027" height="34.731" viewBox="0 0 38.027 34.731"><defs><style>.a{fill:#fff;}</style></defs><g transform="translate(-76.191 -26.656)"><path class="a" d="M1067.031,307.666a56.162,56.162,0,0,1-10.414-7.421c-4.783-4.524-7.208-9.388-7.208-14.456,0-6.978,4.856-12.043,11.546-12.043a13.141,13.141,0,0,1,5.612,1.187,11.455,11.455,0,0,0-3.144,3.9,9.016,9.016,0,0,0-2.468-.331c-4.06,0-6.788,2.927-6.788,7.285,0,3.708,1.924,7.409,5.719,11a47.221,47.221,0,0,0,8.471,6.14l.064.038.064-.038a47.234,47.234,0,0,0,8.471-6.14c3.8-3.59,5.72-7.29,5.72-11,0-4.357-2.728-7.285-6.788-7.285-4.645,0-7.53,2.958-7.53,7.719v.562h4.862v4.758h-4.862V300.5c-.682-.393-3.2-1.9-4.758-3.04V286.223c0-7.347,5.053-12.477,12.288-12.477,6.69,0,11.547,5.065,11.547,12.043,0,5.068-2.425,9.932-7.209,14.456a56.17,56.17,0,0,1-10.415,7.421l-1.39.811Z" transform="translate(-973.217 -247.09)"/></g></svg>